<svg width="49" height="49" viewBox="0 0 49 49" fill="none" xmlns="http://www.w3.org/2000/svg">
<g id="Group 5">
<circle id="Ellipse 3" cx="24.5" cy="24.5" r="24.5" fill="white"/>
<g id="Group 3">
<path id="Vector" d="M34.369 40.5958C32.4637 42.4427 30.3834 42.1511 28.3809 41.2762C26.2617 40.3819 24.3175 40.343 22.0816 41.2762C19.282 42.4816 17.8044 42.1317 16.1324 40.5958C6.6447 30.8164 8.04453 15.9239 18.8154 15.3795C21.4401 15.5156 23.2676 16.8182 24.8035 16.9349C27.0977 16.4682 29.2946 15.1268 31.7443 15.3017C34.6801 15.535 36.8964 16.7016 38.3546 18.8013C32.2887 22.4369 33.7274 30.4276 39.2878 32.6634C38.1796 35.5797 36.7409 38.4766 34.3495 40.6152L34.369 40.5958ZM24.6091 15.2628C24.3175 10.9273 27.8365 7.34996 31.8804 7C32.4442 12.016 27.331 15.7489 24.6091 15.2628Z" fill="#545454"/>
</g>
</g>
</svg>
