<svg width="49" height="49" viewBox="0 0 49 49" fill="none" xmlns="http://www.w3.org/2000/svg">
<g id="Group 6">
<circle id="Ellipse 2" cx="24.5" cy="24.5" r="24.5" fill="white"/>
<g id="Group 2">
<path id="Vector" d="M42 24.5C42 14.8351 34.1649 7 24.5 7C14.8351 7 7 14.8349 7 24.5C7 33.2347 13.3995 40.4746 21.7656 41.7874V29.5586H17.3223V24.5H21.7656V20.6445C21.7656 16.2586 24.3783 13.8359 28.3756 13.8359C30.2903 13.8359 32.293 14.1777 32.293 14.1777V18.4844H30.0863C27.9122 18.4844 27.2344 19.8334 27.2344 21.2174V24.5H32.0879L31.312 29.5586H27.2344V41.7874C35.6005 40.4746 42 33.2348 42 24.5Z" fill="#1877F2"/>
<path id="Vector_2" d="M31.312 29.5586L32.0879 24.5H27.2344V21.2174C27.2344 19.8332 27.9124 18.4844 30.0863 18.4844H32.293V14.1777C32.293 14.1777 30.2903 13.8359 28.3756 13.8359C24.3783 13.8359 21.7656 16.2586 21.7656 20.6445V24.5H17.3223V29.5586H21.7656V41.7874C22.6702 41.9292 23.5844 42.0002 24.5 42C25.4156 42.0003 26.3298 41.9292 27.2344 41.7874V29.5586H31.312Z" fill="white"/>
</g>
</g>
</svg>
