<svg width="49" height="49" viewBox="0 0 49 49" fill="none" xmlns="http://www.w3.org/2000/svg">
<g id="Group 4">
<circle id="Ellipse 1" cx="24.5" cy="24.5" r="24.5" fill="white"/>
<g id="Group 1">
<path id="Vector" d="M19.0098 7.27763C15.3992 8.53018 12.2854 10.9076 10.1258 14.0606C7.96624 17.2136 6.87467 20.9761 7.01145 24.7954C7.14824 28.6146 8.50617 32.2893 10.8858 35.2798C13.2654 38.2703 16.5413 40.4188 20.2323 41.4099C23.2246 42.182 26.3597 42.2159 29.3681 41.5087C32.0933 40.8965 34.6129 39.5871 36.6801 37.7087C38.8316 35.6939 40.3933 33.1308 41.1972 30.295C42.0707 27.2111 42.2262 23.9681 41.6517 20.8148H24.8482V27.7852H34.5797C34.3852 28.8969 33.9684 29.958 33.3543 30.9049C32.7401 31.8518 31.9413 32.6651 31.0055 33.296C29.8174 34.0824 28.4777 34.6113 27.0728 34.8488C25.6639 35.1108 24.2188 35.1108 22.8098 34.8488C21.3817 34.5539 20.0308 33.9645 18.8433 33.1182C16.9352 31.7675 15.5025 29.8487 14.7497 27.6356C13.9843 25.3809 13.9843 22.9367 14.7497 20.6821C15.2856 19.1017 16.1715 17.6628 17.3413 16.4727C18.6801 15.0858 20.3749 14.0945 22.24 13.6074C24.1051 13.1204 26.0682 13.1564 27.9141 13.7117C29.3562 14.1541 30.6749 14.9275 31.765 15.9702C32.8622 14.8786 33.9576 13.7841 35.0511 12.6868C35.6158 12.0968 36.2312 11.535 36.7874 10.9308C35.1232 9.38236 33.1699 8.17739 31.0394 7.38491C27.1595 5.97612 22.9142 5.93826 19.0098 7.27763Z" fill="white"/>
<path id="Vector_2" d="M19.0183 7.279C22.9223 5.93872 27.1676 5.97558 31.0478 7.38346C33.1788 8.18132 35.1311 9.39209 36.793 10.9463C36.2284 11.5505 35.6327 12.1151 35.0568 12.7023C33.9614 13.7958 32.8669 14.8856 31.7734 15.9716C30.6833 14.9289 29.3647 14.1555 27.9226 13.713C26.0773 13.1558 24.1142 13.1177 22.2486 13.6028C20.3831 14.0878 18.6872 15.0774 17.347 16.4628C16.1771 17.6529 15.2912 19.0918 14.7553 20.6722L8.90283 16.141C10.9977 11.9868 14.6247 8.80923 19.0183 7.279Z" fill="#E33629"/>
<path id="Vector_3" d="M7.35007 20.6298C7.6644 19.0708 8.18665 17.561 8.90281 16.141L14.7553 20.6835C13.9899 22.9381 13.9899 25.3823 14.7553 27.6369C12.8054 29.1426 10.8546 30.6559 8.90281 32.1766C7.11052 28.609 6.5639 24.5442 7.35007 20.6298Z" fill="#F8BD00"/>
<path id="Vector_4" d="M24.8566 20.8133H41.6602C42.2347 23.9666 42.0792 27.2097 41.2057 30.2936C40.4017 33.1294 38.8401 35.6924 36.6886 37.7072C34.7999 36.2335 32.9027 34.7711 31.014 33.2974C31.9504 32.6658 32.7496 31.8517 33.3637 30.9037C33.9779 29.9558 34.3943 28.8937 34.5881 27.7809H24.8566C24.8538 25.4603 24.8566 23.1368 24.8566 20.8133Z" fill="#587DBD"/>
<path id="Vector_5" d="M8.89999 32.1766C10.8518 30.6709 12.8026 29.1577 14.7524 27.6369C15.5068 29.8509 16.9415 31.7698 18.8517 33.1195C20.0429 33.9619 21.3968 34.5465 22.8267 34.836C24.2357 35.0981 25.6808 35.0981 27.0897 34.836C28.4946 34.5986 29.8342 34.0696 31.0224 33.2833C32.9111 34.757 34.8083 36.2194 36.697 37.6931C34.6301 39.5726 32.1105 40.8829 29.385 41.4959C26.3766 42.2031 23.2415 42.1692 20.2492 41.3971C17.8825 40.7652 15.6719 39.6512 13.7559 38.125C11.7281 36.5148 10.0717 34.4857 8.89999 32.1766Z" fill="#319F43"/>
</g>
</g>
</svg>
